<svg width="64" height="88" viewBox="0 0 64 88" fill="none" xmlns="http://www.w3.org/2000/svg">
<g filter="url(#filter0_d_3160_17168)">
<rect x="16" y="16" width="32" height="32" rx="4" fill="#008AFF"/>
<rect x="16" y="16" width="32" height="32" rx="4" fill="white" fill-opacity="0.1"/>
<path d="M43.4526 27.6015C37.2862 29.8768 30.778 31.1976 24.1742 31.5139C24.5033 36.2629 27.7679 41.4609 30.439 41.4609C37.2071 41.4609 42.6461 30.7019 43.7945 28.4012C44.2333 27.5461 43.8978 27.4169 43.4526 27.6015Z" fill="white"/>
<path d="M27.8649 29.5085C24.6389 28.4012 25.2841 23.0985 25.2132 22.7418C24.8906 21.5791 20 25.6822 20 28.4689C20 29.6315 20.7936 30.0006 22.0969 30.0375C24.0265 30.0254 25.9517 29.8588 27.852 29.5392C27.8972 29.5454 27.8907 29.5146 27.8649 29.5085Z" fill="white"/>
</g>
<defs>
<filter id="filter0_d_3160_17168" x="-16" y="-8" width="96" height="96" filterUnits="userSpaceOnUse" color-interpolation-filters="sRGB">
<feFlood flood-opacity="0" result="BackgroundImageFix"/>
<feColorMatrix in="SourceAlpha" type="matrix" values="0 0 0 0 0 0 0 0 0 0 0 0 0 0 0 0 0 0 127 0" result="hardAlpha"/>
<feOffset dy="8"/>
<feGaussianBlur stdDeviation="16"/>
<feColorMatrix type="matrix" values="0 0 0 0 0 0 0 0 0 0 0 0 0 0 0 0 0 0 0.08 0"/>
<feBlend mode="normal" in2="BackgroundImageFix" result="effect1_dropShadow_3160_17168"/>
<feBlend mode="normal" in="SourceGraphic" in2="effect1_dropShadow_3160_17168" result="shape"/>
</filter>
</defs>
</svg>
